<svg height="468pt" viewBox="0 -40 468.01112 468" width="468pt" xmlns="http://www.w3.org/2000/svg"><path d="m54.089844 45.734375h-34.53125l-13.558594-39.730469h440l-13.558594 39.730469zm0 0" fill="#e2d574"/><path d="m277.171875 297.707031c-.242187-2.722656-.363281-5.480469-.363281-8.261719 0-2.699218.121094-5.378906.351562-8.019531 4.164063-47.847656 44.222656-84.570312 92.25-84.570312 2.730469 0 5.429688.117187 8.101563.351562 48.882812 4.261719 85.964843 45.890625 84.570312 94.941407-1.398437 49.046874-40.789062 88.503906-89.835937 89.976562-49.046875 1.476562-90.738282-35.542969-95.074219-84.417969zm0 0" fill="#f8ec7d"/><path d="m385.628906 94.675781h-331.539062v-48.941406h343.820312v48.941406zm0 0" fill="#f8ec7d"/><path d="m385.628906 94.675781v51.769531c.019532 17.082032-2.710937 34.054688-8.078125 50.269532l-.039062.492187c-2.667969-.230469-5.367188-.347656-8.101563-.351562-48.027344 0-88.085937 36.722656-92.25 84.570312-.230468 2.640625-.351562 5.320313-.351562 8.019531 0 2.78125.121094 5.539063.363281 8.261719-48.734375 16.46875-102.421875 8.453125-144.214844-21.539062-41.796875-29.988281-66.585937-78.28125-66.585937-129.722657v-51.769531zm-90.328125 86.570313c.003907-8.382813-6.28125-15.433594-14.609375-16.390625l.027344-.238281c-2.769531-27.007813-24.828125-47.957032-51.945312-49.332032-27.113282-1.371094-51.175782 17.242188-56.660157 43.832032-5.488281 26.589843 9.246094 53.203124 34.691407 62.671874 25.445312 9.472657 53.992187-1.035156 67.226562-24.742187h.007812c5 1.503906 10.414063.558594 14.601563-2.554687 4.191406-3.117188 6.660156-8.027344 6.660156-13.246094zm0 0" fill="#6fe3ff"/><path d="m274.03125 197.046875c-7.839844-2.359375-12.765625-10.113281-11.570312-18.210937 1.195312-8.101563 8.152343-14.097657 16.339843-14.089844.628907 0 1.261719.039062 1.890625.109375 6.203125.714843 11.472656 4.875 13.609375 10.742187 2.140625 5.867188.78125 12.441406-3.507812 16.980469-4.289063 4.539063-10.773438 6.269531-16.753907 4.46875zm0 0" fill="#cc7350"/><path d="m280.71875 164.617188-.027344.238281c-.628906-.070313-1.261718-.109375-1.890625-.109375-8.1875-.007813-15.144531 5.988281-16.339843 14.089844-1.195313 8.097656 3.730468 15.851562 11.570312 18.210937-13.230469 23.691406-41.765625 34.191406-67.195312 24.722656-25.433594-9.464843-40.15625-36.066406-34.675782-62.644531 5.484375-26.574219 29.535156-45.179688 56.636719-43.808594 27.097656 1.371094 49.148437 22.304688 51.921875 49.300782zm0 0" fill="#e48e66"/><g fill="#63316d"><path d="m403.601562 196.949219c-5.949218-2.199219-12.09375-3.8125-18.355468-4.816407 4.25-14.855468 6.402344-30.234374 6.390625-45.6875v-45.769531h6.277343c3.316407 0 6-2.6875 6-6v-42.941406h28.53125c2.566407 0 4.847657-1.632813 5.675782-4.0625l13.5625-39.726563c.625-1.835937.328125-3.855468-.800782-5.433593-1.125-1.574219-2.945312-2.50781275-4.882812-2.50781275h-440c-1.9375 0-3.753906.93749975-4.878906 2.51171875-1.1289065 1.574219-1.425782 3.597656-.800782 5.429687l13.5625 39.726563c.828126 2.429687 3.109376 4.0625 5.675782 4.0625h28.53125v42.941406c0 3.3125 2.6875 6 6 6h6.28125v45.769531c.039062 52.074219 24.546875 101.105469 66.179687 132.386719 41.632813 31.285157 95.542969 41.183594 145.574219 26.734375 4.082031 24.832032 17.539062 47.152344 37.59375 62.359375 17.128906 13.113281 38.117188 20.1875 59.691406 20.121094 47.757813-.003906 88.648438-34.234375 97.058594-81.246094s-18.078125-93.292969-62.875-109.855469zm-389.214843-184.945313h423.226562l-9.464843 27.730469h-28.800782c-.941406-.238281-1.925781-.238281-2.867187 0h-340.957031c-.941407-.238281-1.925782-.238281-2.867188 0h-28.800781zm45.703125 39.730469h331.820312v36.941406h-331.820312zm57.269531 203.347656c-28.898437-28.75-45.097656-67.871093-44.988281-108.636719v-45.769531h307.257812v45.769531c.011719 15.070313-2.191406 30.054688-6.546875 44.480469-52.515625-1.957031-97.339843 37.625-101.898437 89.980469-.246094 2.839844-.375 5.710938-.375 8.539062 0 1.320313.035156 2.644532.085937 3.964844-54.328125 16.53125-113.347656 1.800782-153.53125-38.328125zm252.050781 120.964844c-44.851562.046875-82.300781-34.191406-86.261718-78.867187-.226563-2.535157-.339844-5.136719-.339844-7.734376 0-2.480468.113281-5 .328125-7.503906 3.898437-44.746094 41.359375-79.085937 86.273437-79.085937 2.5 0 5.058594.109375 7.585938.328125 46.152344 4.082031 80.914062 43.769531 78.882812 90.058594-2.03125 46.289062-40.136718 82.777343-86.46875 82.804687zm0 0"/><path d="m408.652344 250.203125c-2.34375-2.34375-6.140625-2.34375-8.484375 0l-30.757813 30.757813-30.757812-30.757813c-1.511719-1.535156-3.730469-2.144531-5.8125-1.59375-2.085938.554687-3.710938 2.179687-4.265625 4.265625-.550781 2.082031.054687 4.300781 1.59375 5.8125l30.757812 30.757812-30.757812 30.757813c-1.539063 1.511719-2.144531 3.730469-1.59375 5.816406.554687 2.082031 2.179687 3.707031 4.265625 4.261719 2.082031.550781 4.300781-.058594 5.8125-1.59375l30.757812-30.757812 30.757813 30.757812c2.347656 2.3125 6.121093 2.296875 8.449219-.035156 2.332031-2.328125 2.347656-6.101563.035156-8.449219l-30.753906-30.757813 30.757812-30.757812c2.34375-2.34375 2.339844-6.140625-.003906-8.484375zm0 0"/><path d="m278.800781 203.746094c10.992188.003906 20.375-7.9375 22.191407-18.777344 1.816406-10.839844-4.46875-21.40625-14.859376-24.980469-4.929687-28.898437-29.710937-50.207031-59.023437-50.746093-29.308594-.535157-54.855469 19.847656-60.839844 48.546874-5.980469 28.699219 9.292969 57.59375 36.375 68.8125s58.316407 1.589844 74.378907-22.933593c.589843.046875 1.183593.078125 1.777343.078125zm0-12c-1.027343 0-2.050781-.152344-3.035156-.449219l-.128906-.035156c-5.167969-1.625-8.25-6.917969-7.113281-12.214844 1.132812-5.296875 6.109374-8.859375 11.492187-8.230469 5.519531.652344 9.574219 5.488282 9.253906 11.039063-.324219 5.546875-4.910156 9.882812-10.46875 9.890625zm-52.800781 27.5c-25.636719-.003906-46.9375-19.773438-48.851562-45.335938-1.917969-25.566406 16.195312-48.289062 41.546874-52.117187 25.347657-3.824219 49.363282 12.535156 55.082032 37.523437-8.566406 1.960938-15.207032 8.730469-17.003906 17.332032-1.796876 8.601562 1.574218 17.460937 8.640624 22.6875-9.242187 12.507812-23.863281 19.894531-39.414062 19.910156zm0 0"/></g></svg>